# xmcd CD database file
#
# Track frame offsets:
#	150
#	12303
#	30564
#	46469
#	68151
#	89234
#	109395
#	122309
#	138192
#	161089
#	174538
#	192525
#	212701
#	231690
#	250732
#	267308
#	279879
#	292085
#	303142
#	322848
#	339574
#
# Disc length: 4723 seconds
#
# Revision: 0
# Processed by: cddbd v1.5.2PL0 Copyright (c) Steve Scherf et al.
# Submitted via: CDex 1.70beta2
#
DISCID=3a127115
DTITLE=Saffire - Old, New, Borrowed and Blue
DYEAR=1994
DGENRE=Blues
TTITLE0=Because of you
TTITLE1=Hungry woman's blues
TTITLE2=In my girlish days
TTITLE3=Don't it
TTITLE4=Sweet black angel
TTITLE5=I lost my baby to another man
TTITLE6=If love hurts
TTITLE7=I want my money back
TTITLE8=Blues is in the house
TTITLE9=Bad debt
TTITLE10=Tomorrow ain't promised
TTITLE11=Fools' night out
TTITLE12=T'aint nobody's business
TTITLE13=You got to know how
TTITLE14=Do your duty
TTITLE15=Roll Mr. Jelly
TTITLE16=The richest guy in the graveyard
TTITLE17=Baby, I'm wise
TTITLE18=Falling back in love with you
TTITLE19=There's lightin these thunder thighs
TTITLE20=Yonder come the blues
EXTD=YEAR: 1994
EXTT0=
EXTT1=
EXTT2=
EXTT3=
EXTT4=
EXTT5=
EXTT6=
EXTT7=
EXTT8=
EXTT9=
EXTT10=
EXTT11=
EXTT12=
EXTT13=
EXTT14=
EXTT15=
EXTT16=
EXTT17=
EXTT18=
EXTT19=
EXTT20=
PLAYORDER=
